HIERARCHY
ROOT Hips
{
	OFFSET	0.00  0.00  0.00 
	CHANNELS 6 Xposition Yposition Zposition Xrotation Zrotation Yrotation
	JOINT Abdomen
	{
		OFFSET	0.00 0.00 0.00
		CHANNELS 3 Xrotation Zrotation Yrotation
		JOINT Chest
		{
			OFFSET	0.00 6.25 -0.56
			CHANNELS 3 Xrotation Zrotation Yrotation
			JOINT neckDummy
			{
				OFFSET	0.00 8.24 -0.23
				CHANNELS 3 Xrotation Yrotation Zrotation
				JOINT Neck
				{
					OFFSET	0.00 2.70 0.27
					CHANNELS 3 Xrotation Zrotation Yrotation
					JOINT Head
					{
						OFFSET	0.00 2.71 0.32
						CHANNELS 3 Xrotation Zrotation Yrotation
						End Site
						{
							OFFSET 0.00 10.59 0.00
						}
					}
				}
			}
			JOINT LeftCollar
			{
				OFFSET	0.59 8.24 -0.23
				CHANNELS 3 Yrotation Zrotation Xrotation
				JOINT LeftUpArm
				{
					OFFSET	4.52 0.03 -0.04
					CHANNELS 3 Zrotation Yrotation Xrotation
					JOINT LeftLowArm
					{
						OFFSET	13.86 0.13 -0.30
						CHANNELS 3 Yrotation Zrotation Xrotation
						JOINT LeftHand
						{
							OFFSET	10.93 -0.04 0.15
							CHANNELS 3 Zrotation Yrotation Xrotation
							End Site
							{
								OFFSET 10.59 0.00 0.00
							}
						}
					}
				}
			}
			JOINT RightCollar
			{
				OFFSET	-0.59 8.24 -0.23
				CHANNELS 3 Yrotation Zrotation Xrotation
				JOINT RightUpArm
				{
					OFFSET	-4.52 0.03 -0.04
					CHANNELS 3 Zrotation Yrotation Xrotation
					JOINT RightLowArm
					{
						OFFSET	-13.86 0.13 -0.30
						CHANNELS 3 Yrotation Zrotation Xrotation
						JOINT RightHand
						{
							OFFSET	-10.93 -0.04 0.15
							CHANNELS 3 Zrotation Yrotation Xrotation
							End Site
							{
								OFFSET -10.59 0.00 0.00
							}
						}
					}
				}
			}
		}
	}
	JOINT LeftUpLeg
	{
		OFFSET	3.28 -4.40 -0.39
		CHANNELS 3 Xrotation Zrotation Yrotation
		JOINT LeftLowLeg
		{
			OFFSET	-0.23 -20.19 0.08
			CHANNELS 3 Xrotation Zrotation Yrotation
			JOINT LeftFoot
			{
				OFFSET	0.09 -16.89 -0.20
				CHANNELS 3 Xrotation Yrotation Zrotation
				End Site
				{
					OFFSET 0.00 0.00 10.59
				}
			}
		}
	}
	JOINT RightUpLeg
	{
		OFFSET	-3.28 -4.40 -0.39
		CHANNELS 3 Xrotation Zrotation Yrotation
		JOINT RightLowLeg
		{
			OFFSET	0.23 -20.19 0.08
			CHANNELS 3 Xrotation Zrotation Yrotation
			JOINT RightFoot
			{
				OFFSET	-0.09 -16.89 -0.20
				CHANNELS 3 Xrotation Yrotation Zrotation
				End Site
				{
					OFFSET 0.00 0.00 10.59
				}
			}
		}
	}
}
MOTION
Frames:     10
Frame Time: 0.033333
0.00	42.21	0.00	-6.33	-0.52	-0.12	23.09	-0.29	6.91	-17.05	0.00	0.00	0.00	0.00	0.00	19.80	9.39	0.67	-23.51	-6.03	-3.02	7.90	-0.12	-0.34	-61.30	11.54	10.37	-40.98	0.43	-13.17	-3.62	14.61	-0.47	-16.95	3.82	0.00	61.64	-14.53	13.34	31.10	-5.00	-30.78	3.45	-15.14	-0.54	12.41	13.43	-11.45	3.35	-9.66	24.78	-0.53	0.02	1.93	3.34	-10.37	11.28	7.85	3.80	-7.20	-0.17	-0.31	-2.11
0.03	42.19	0.02	-6.50	-0.52	-1.17	23.45	-0.03	6.65	-17.05	0.00	0.00	0.00	0.00	0.00	19.98	9.38	0.68	-23.16	-6.21	-3.21	9.49	0.02	-0.45	-61.42	9.65	9.60	-38.63	-0.92	-11.56	-3.61	14.26	-0.45	-16.24	3.77	0.09	61.83	-14.23	12.93	30.23	-5.00	-32.16	3.45	-15.14	-0.54	13.28	13.07	-11.40	2.67	-9.50	24.50	-0.51	0.14	2.11	2.81	-10.53	11.52	8.93	4.02	-6.11	-0.20	-0.29	-2.11
0.04	42.18	0.03	-6.68	-0.35	-2.07	23.62	-0.25	6.76	-17.05	0.00	0.00	0.00	0.00	0.00	20.53	9.33	0.89	-22.65	-6.75	-3.35	9.65	0.57	-0.36	-61.82	8.85	9.17	-37.93	-1.90	-10.41	-3.61	14.26	-0.45	-15.89	3.77	0.05	61.76	-14.07	12.70	29.68	-5.00	-32.52	3.45	-15.14	-0.54	13.83	12.75	-11.57	2.52	-9.37	24.33	-0.63	0.32	2.11	2.81	-10.71	11.48	9.32	4.01	-5.56	-0.51	-0.12	-1.93
0.03	42.15	0.01	-7.21	-0.35	-3.12	24.13	-0.41	7.27	-17.05	0.00	0.00	0.00	0.00	0.00	21.41	9.30	0.96	-21.79	-7.48	-3.71	8.77	1.47	-0.36	-62.55	9.14	8.89	-38.95	-2.53	-9.07	-3.61	14.26	-0.45	-16.43	4.15	0.04	61.27	-13.63	12.81	29.38	-5.00	-32.10	3.45	-14.96	-0.53	14.56	12.45	-11.37	2.34	-9.60	24.35	-0.63	0.30	1.93	2.46	-10.80	11.54	10.29	4.00	-4.31	-0.35	-0.07	-1.93
0.05	42.14	-0.01	-7.73	-0.35	-4.17	24.62	-0.51	8.20	-17.05	0.00	0.00	0.00	0.00	0.00	22.30	9.28	1.02	-20.77	-8.57	-4.21	8.23	3.09	-0.25	-64.10	9.90	8.69	-40.85	-3.34	-7.77	-3.61	14.43	-0.46	-17.51	4.87	0.21	60.30	-12.77	12.98	29.17	-5.00	-31.39	3.45	-14.96	-0.53	15.37	12.01	-11.33	2.16	-9.82	24.36	-0.63	0.31	2.11	2.46	-10.98	11.54	10.67	4.01	-3.24	-0.16	-0.08	-2.11
0.14	42.14	-0.02	-7.91	-0.35	-5.23	25.12	-0.51	8.80	-17.05	0.00	0.00	0.00	0.00	0.00	23.36	9.25	1.10	-19.93	-9.65	-4.75	4.53	4.34	0.00	-65.37	11.33	8.56	-43.40	-3.78	-6.73	-3.62	14.61	-0.47	-18.23	5.20	0.42	59.39	-12.45	13.28	29.26	-5.00	-30.62	3.45	-14.96	-0.53	16.07	11.66	-11.49	1.76	-9.70	24.74	-0.63	0.31	2.11	2.29	-11.20	11.51	10.95	3.78	-1.85	-0.17	-0.03	-2.11
0.31	42.18	0.03	-8.26	-0.52	-6.08	25.32	-0.20	8.37	-17.05	0.00	0.00	0.00	0.00	0.00	24.41	9.05	1.10	-19.25	-10.73	-5.28	3.11	4.52	0.19	-64.74	12.46	9.01	-46.52	-4.76	-5.54	-3.62	14.78	-0.48	-17.68	4.70	0.19	59.44	-12.98	13.33	30.07	-5.00	-30.38	3.45	-14.96	-0.53	16.41	11.48	-11.48	1.95	-9.85	24.72	-0.65	0.27	2.11	2.29	-11.38	11.51	11.38	3.64	-0.80	-0.17	-0.05	-2.11
0.52	42.27	0.04	-8.26	-0.35	-6.45	25.57	0.36	6.53	-17.05	0.00	0.00	0.00	0.00	0.00	25.28	8.70	1.02	-19.11	-11.61	-5.58	3.12	4.16	0.04	-62.81	13.02	9.89	-49.83	-5.00	-4.50	-3.62	14.96	-0.49	-16.93	2.92	-0.08	60.79	-13.20	12.91	31.20	-5.00	-30.47	3.45	-14.96	-0.53	15.70	10.95	-11.27	3.17	-9.71	24.80	-0.53	0.01	2.11	2.11	-11.78	11.52	11.57	3.64	-0.27	-0.14	-0.11	-1.93
0.76	42.41	-0.02	-8.09	-0.17	-6.65	26.18	0.85	3.13	-17.05	0.00	0.00	0.00	0.00	0.00	25.95	8.41	0.74	-19.32	-12.30	-5.82	4.53	5.23	0.10	-61.76	12.83	10.54	-51.39	-5.00	-3.05	-3.63	15.14	-0.50	-16.89	0.30	-0.51	63.35	-12.06	11.60	32.66	-5.00	-29.45	3.45	-15.14	-0.54	13.89	10.72	-11.62	5.82	-9.70	24.58	-0.57	0.41	2.11	0.88	-12.12	11.45	13.09	3.45	-0.07	-0.16	-0.08	-2.11
0.97	42.53	-0.27	-7.56	0.00	-6.68	26.90	1.04	-0.44	-17.05	0.00	0.00	0.00	0.00	0.00	26.42	8.00	0.19	-20.07	-12.79	-5.58	6.13	7.53	-0.02	-61.21	12.38	10.82	-50.61	-5.00	-0.80	-3.62	14.96	-0.49	-18.46	-2.31	-0.92	66.14	-9.35	10.15	34.66	-5.00	-26.84	3.45	-15.14	-0.54	10.88	10.18	-11.61	9.96	-9.59	24.61	-0.25	0.25	2.11	-2.06	-11.83	11.73	17.13	3.09	0.51	-0.35	0.06	-2.11
